<svg width="20" height="20" viewBox="0 0 20 20" fill="none" xmlns="http://www.w3.org/2000/svg">
<g clip-path="url(#clip0_1_463)">
<path d="M14.0337 7.3798C14.31 7.65585 14.31 8.10376 14.0337 8.37982L9.08655 13.3269C8.81049 13.6033 8.36258 13.6033 8.08653 13.3269L5.96633 11.2067C5.58143 10.8218 5.75754 10.1646 6.28333 10.0237C6.52736 9.95832 6.78772 10.0281 6.96636 10.2067L8.58654 11.8278L13.0336 7.3798C13.3097 7.10343 13.7576 7.10343 14.0337 7.3798ZM19.1875 10C19.1875 17.0725 11.5313 21.4929 5.40625 17.9566C-0.71875 14.4203 -0.71875 5.57966 5.40625 2.04339C6.80293 1.23702 8.38726 0.8125 10 0.8125C15.0719 0.817861 19.1821 4.9281 19.1875 10ZM17.774 10C17.774 4.01554 11.2957 0.275254 6.11298 3.26748C0.93029 6.25971 0.93029 13.7403 6.11298 16.7325C7.29468 17.4148 8.63549 17.774 10 17.774C14.2915 17.7692 17.7692 14.2915 17.774 10Z" fill="#54C447"/>
</g>
<defs>
<clipPath id="clip0_1_463">
<rect width="20" height="20" fill="white"/>
</clipPath>
</defs>
</svg>
