<svg width="144" height="26" viewBox="0 0 144 26" fill="none" xmlns="http://www.w3.org/2000/svg">
<g clip-path="url(#clip0_1_258)">
<path d="M7.84155 1.2943C10.6992 0.268428 13.9578 0.352516 16.7653 1.49611C18.5534 2.21927 20.141 3.48059 21.1771 5.11189C22.1129 6.52457 22.5139 8.23997 22.6309 9.92173C20.776 9.92173 18.9378 9.92173 17.0828 9.92173C17.0828 8.71086 16.6985 7.43272 15.7626 6.62548C14.5929 5.59961 12.9385 5.36416 11.4177 5.48188C9.81347 5.63324 8.24262 6.49094 7.40707 7.90361C6.1036 9.97218 5.9532 12.5621 6.33755 14.9334C6.67177 16.7329 7.57418 18.566 9.21187 19.5078C10.5153 20.315 12.1196 20.3823 13.5902 20.1636C15.1276 19.9618 16.6483 19.205 17.5507 17.9101C17.6176 17.3383 17.5674 16.7497 17.5842 16.1779C15.7125 16.1442 13.8743 16.1611 12.0193 16.1442C12.0193 14.5129 12.0193 12.8984 12.0193 11.2671C15.6457 11.2671 19.272 11.2671 22.8983 11.2671C22.8983 15.7406 22.8983 20.2141 22.8983 24.6876C21.4946 24.6876 20.0741 24.6876 18.6704 24.7044C18.5033 24.3344 18.3696 23.9644 18.169 23.6112C16.3977 24.6876 14.2921 25.1585 12.2199 25.0912C9.78005 25.1921 7.29008 24.4689 5.28475 23.0563C3.04545 21.4586 1.60829 18.936 0.989981 16.2788C0.622335 14.7652 0.639046 13.1843 0.672469 11.6371C0.756024 9.60219 1.37434 7.58408 2.3603 5.81823C3.63034 3.74967 5.56884 2.08473 7.84155 1.2943Z" fill="#FFC107"/>
<path d="M26.3906 1.09494C31.9889 1.06131 37.6038 1.09494 43.202 1.07812C43.202 2.6758 43.202 4.27347 43.202 5.87114C39.3919 5.87114 35.5985 5.87114 31.7883 5.87114C31.7716 7.33427 31.7883 8.78058 31.7883 10.2437C35.0971 10.2605 38.4227 10.2269 41.7315 10.2605C41.7315 11.8582 41.7315 13.4559 41.7315 15.0535C38.4227 15.0704 35.0971 15.0535 31.7883 15.0535C31.7883 18.2657 31.805 21.4779 31.7883 24.7068C30.0002 24.69 28.1954 24.7068 26.4073 24.7068C26.3906 16.8362 26.3906 8.96558 26.3906 1.09494Z" fill="#F3F9FF"/>
<path d="M49.8047 24.7062V0.976562H55.5032V20.0477H65.3126V24.7062L49.8047 24.7062Z" fill="#F3F9FF"/>
<path d="M76.5264 25.0418C74.6715 25.0418 73.0839 24.6718 71.747 23.9318C70.4101 23.1919 69.374 22.1323 68.6555 20.7701C67.9369 19.3911 67.5859 17.7598 67.5859 15.8762C67.5859 14.0431 67.9536 12.4286 68.6722 11.0495C69.3907 9.67051 70.4101 8.59418 71.7303 7.82057C73.0505 7.04696 74.5879 6.66016 76.376 6.66016C77.6293 6.66016 78.7824 6.86197 79.8352 7.24877C80.8713 7.63558 81.7737 8.22419 82.5424 8.9978C83.2944 9.77141 83.896 10.73 84.3138 11.8568C84.7316 12.9836 84.9488 14.2785 84.9488 15.7417V17.1543H69.5746V13.8917H79.7015C79.7015 13.2863 79.5511 12.7481 79.2837 12.2772C78.9997 11.8063 78.632 11.4364 78.1474 11.1673C77.6628 10.8982 77.1113 10.7637 76.493 10.7637C75.858 10.7637 75.3065 10.8982 74.8052 11.1841C74.3038 11.47 73.9028 11.8568 73.6187 12.3277C73.3346 12.8154 73.1675 13.3536 73.1508 13.959V17.3225C73.1508 18.0457 73.2844 18.6847 73.5685 19.2229C73.8526 19.7611 74.2537 20.1983 74.7717 20.4842C75.2898 20.7869 75.9081 20.9383 76.6434 20.9383C77.1447 20.9383 77.5959 20.871 77.997 20.7365C78.3981 20.6019 78.749 20.4001 79.0498 20.1142C79.3339 19.8452 79.5678 19.5088 79.7015 19.122L84.8653 19.2734C84.648 20.4338 84.1801 21.4596 83.4615 22.3173C82.743 23.175 81.7904 23.8477 80.6039 24.3186C79.4174 24.8063 78.0638 25.0418 76.5264 25.0418Z" fill="#F3F9FF"/>
<path d="M92.7831 25.0093C91.6468 25.0093 90.6608 24.8244 89.7918 24.4375C88.9229 24.0507 88.2377 23.4789 87.7364 22.7053C87.235 21.9317 86.9844 20.9563 86.9844 19.7791C86.9844 18.7868 87.1515 17.9628 87.5024 17.2733C87.8533 16.6005 88.3213 16.0456 88.9229 15.6083C89.5245 15.1879 90.2263 14.8683 91.0118 14.6329C91.7972 14.4143 92.6494 14.2629 93.5519 14.1788C94.5545 14.0779 95.3734 13.9938 95.975 13.8761C96.5933 13.7752 97.0278 13.6238 97.3119 13.422C97.596 13.2202 97.7296 12.9511 97.7296 12.5811V12.5307C97.7296 11.9421 97.5291 11.4712 97.1113 11.1516C96.7103 10.8321 96.1588 10.6639 95.4569 10.6639C94.7049 10.6639 94.12 10.8321 93.6688 11.1516C93.2176 11.4712 92.9335 11.9253 92.7998 12.4971L87.6027 12.3121C87.7531 11.2357 88.1541 10.2603 88.7892 9.40262C89.4242 8.54492 90.3099 7.87222 91.4295 7.38451C92.5492 6.8968 93.9028 6.64453 95.4903 6.64453C96.6267 6.64453 97.6628 6.77907 98.6153 7.04815C99.5679 7.31724 100.403 7.70404 101.105 8.20857C101.807 8.7131 102.359 9.33535 102.743 10.0753C103.127 10.8153 103.328 11.6394 103.328 12.5811V24.673H98.0304V22.2008H97.8967C97.5792 22.8062 97.1782 23.3108 96.6935 23.7312C96.2089 24.1517 95.6407 24.4544 94.9723 24.673C94.3038 24.8916 93.602 25.0093 92.7831 25.0093ZM94.5211 21.2927C95.1227 21.2927 95.6742 21.1749 96.1588 20.9227C96.6434 20.6704 97.0278 20.3341 97.3286 19.8968C97.6127 19.4595 97.7631 18.955 97.7631 18.3664V16.6846C97.5959 16.7687 97.4121 16.8528 97.1782 16.9201C96.9442 16.9874 96.7103 17.0546 96.4429 17.1219C96.1755 17.1892 95.8914 17.2396 95.6073 17.2901C95.3232 17.3405 95.0558 17.3742 94.7885 17.4246C94.2537 17.5087 93.8025 17.6432 93.4349 17.8114C93.0672 17.9964 92.7831 18.215 92.5826 18.5009C92.3821 18.7868 92.2818 19.1232 92.2818 19.51C92.2818 20.0986 92.499 20.5527 92.9168 20.8554C93.3513 21.1413 93.8861 21.2927 94.5211 21.2927Z" fill="#F3F9FF"/>
<path d="M113.241 24.9585C111.937 24.9585 110.751 24.6221 109.681 23.9326C108.612 23.2599 107.759 22.234 107.124 20.8718C106.489 19.5096 106.172 17.8278 106.172 15.8097C106.172 13.7243 106.506 11.9921 107.158 10.6467C107.81 9.30127 108.679 8.29221 109.748 7.65315C110.818 6.99726 111.971 6.67773 113.207 6.67773C114.143 6.67773 114.929 6.8459 115.597 7.16544C116.265 7.48497 116.8 7.90541 117.235 8.39312C117.669 8.89765 117.987 9.41899 118.221 9.95716H118.338V0.976562H123.969V24.7062H118.404V21.8136H118.237C118.003 22.3685 117.669 22.8731 117.218 23.3608C116.783 23.8317 116.232 24.2185 115.58 24.5212C114.912 24.8071 114.143 24.9585 113.241 24.9585ZM115.196 20.5522C115.881 20.5522 116.466 20.3504 116.951 19.9636C117.435 19.5768 117.803 19.0218 118.07 18.3155C118.338 17.6092 118.455 16.7683 118.455 15.8097C118.455 14.8343 118.321 13.9934 118.07 13.3039C117.82 12.5975 117.435 12.0594 116.951 11.6894C116.466 11.3194 115.881 11.1176 115.196 11.1176C114.494 11.1176 113.909 11.3026 113.425 11.6894C112.94 12.0762 112.572 12.6143 112.322 13.3207C112.071 14.027 111.954 14.8511 111.954 15.8097C111.954 16.7683 112.088 17.6092 112.338 18.3155C112.589 19.0218 112.957 19.5768 113.441 19.9636C113.909 20.3504 114.511 20.5522 115.196 20.5522Z" fill="#F3F9FF"/>
<path d="M142.974 12.3433L137.811 12.4779C137.76 12.1079 137.61 11.7715 137.376 11.4856C137.142 11.1997 136.825 10.9643 136.457 10.7961C136.073 10.6279 135.638 10.5438 135.137 10.5438C134.485 10.5438 133.934 10.6784 133.466 10.9306C133.015 11.1997 132.781 11.5529 132.797 11.9901C132.797 12.3433 132.931 12.646 133.215 12.8983C133.499 13.1506 134.017 13.3524 134.769 13.5205L138.178 14.1764C139.95 14.5128 141.253 15.0846 142.122 15.875C142.991 16.6654 143.426 17.7081 143.426 19.0031C143.426 20.2308 143.058 21.2903 142.356 22.1816C141.654 23.0898 140.685 23.7793 139.448 24.2838C138.228 24.7883 136.808 25.0238 135.237 25.0238C132.714 25.0238 130.725 24.5024 129.271 23.4597C127.817 22.417 126.982 21.0044 126.781 19.2553L132.346 19.1208C132.463 19.7767 132.781 20.2644 133.299 20.6007C133.817 20.9371 134.468 21.1053 135.271 21.1053C135.989 21.1053 136.574 20.9707 137.025 20.7017C137.476 20.4326 137.71 20.0794 137.71 19.6253C137.71 19.2217 137.527 18.9022 137.176 18.6499C136.825 18.4145 136.29 18.2127 135.555 18.0781L132.463 17.4895C130.692 17.17 129.371 16.5645 128.502 15.69C127.634 14.8155 127.199 13.6887 127.216 12.3433C127.216 11.1493 127.517 10.1402 128.152 9.28251C128.787 8.44163 129.689 7.78574 130.875 7.34848C132.045 6.89441 133.432 6.67578 135.037 6.67578C137.426 6.67578 139.315 7.18031 140.702 8.18936C142.072 9.19842 142.824 10.5775 142.974 12.3433Z" fill="#F3F9FF"/>
</g>
<defs>
<clipPath id="clip0_1_258">
<rect width="144" height="26" fill="white"/>
</clipPath>
</defs>
</svg>
